<svg xmlns="http://www.w3.org/2000/svg" viewBox="0 0 914.61 275.43"><defs><style>.a{fill:#0d9c8c}.b{fill:#ab2f3f}.c{fill:#2481aa}.d{fill:#9d3e49}.e{fill:#131311}.f{fill:#5c5c5c}</style></defs><path class="a" d="M123.42 82.15a.93.93 0 0 0-.83.22c-2.11-.47-3.7.71-5.36 1.69-6.49 2.17-11.66 6.17-16.22 11.17-2.16 2.35-2.69 5.13-2.68 8.27q.11 43.5 0 87c0 1.64.34 3.32-.48 5.35H76.24c-1.1-2-.59-4.17-.59-6.27-.06-27.5 0-55-.12-82.49a27.81 27.81 0 0 0-8.85-20.93A13.07 13.07 0 0 0 58 81.21a26.14 26.14 0 0 0-18.43 4.84l-.93.36a10.16 10.16 0 0 0-5.28 3.5h-.05a4.17 4.17 0 0 0-2.83 2.26.54.54 0 0 0-.47.32c-4.79 3.22-6.72 7.44-6.66 13.45.3 28.62.14 57.24.13 85.86 0 1.3.34 2.66-.62 4.12H1.4V66.37h22.07v23.26l7.4-7.95 14-11.33c5-1.89 9.43-5.11 14.74-6.25 8.25-1.94 15.81.07 23 4.07a.52.52 0 0 0 .57.31c6.75 5.7 12.44 12.15 14.48 21.5 1.46-1.83 2.64-3 3.05-4.66 4.47-5.92 10.46-10.22 16.09-14.9 4.85-1.58 9.27-4.22 14.23-5.6 13.17-3.66 24.11-.38 32.24 10.13a96.88 96.88 0 0 1 5.27 8.34c3.2 7.63 4.17 15.58 4.13 23.82-.14 27.59 0 55.19-.08 82.78 0 1.95.37 3.95-.6 6.38h-20.68c-1-2.29-1-4.73-1-7.17 0-26.9-.12-53.8.05-80.7.05-9-2.49-16.66-9.14-22.71-5.14-4.63-11.13-6.07-17.8-3.54zm310.94 8.08a.8.8 0 0 0 .37-.72l11.9-13.2c2.69-2 5.73-3.46 8.07-5.91a4.44 4.44 0 0 0 1.44-.24c14.5-8 29.26-9.37 44.42-1.9a1.7 1.7 0 0 0 1.82 1.19 1.06 1.06 0 0 0 1.09.92c2.07 3.47 4.15 2.22 6.23 0a18.51 18.51 0 0 0 7-4.1 2.16 2.16 0 0 0 1.87-1.04 1.4 1.4 0 0 0 1.38-.79.58.58 0 0 0 .61-.32c2.23-.28 4.44-1.57 6.85-.07v187.16h-21.74v-74.98l-8.67 9.58a.43.43 0 0 0-.41.4 2.73 2.73 0 0 0-2 2c-1 .62-2 1.17-2.89 1.86a43.85 43.85 0 0 1-22.77 8.86c-8.93.86-16.89-2.06-24.36-6.63-16.13-13-22.93-30.47-24-50.61a103.31 103.31 0 0 1 2.12-25.3q3.88-10.08 7.82-20.16a1.42 1.42 0 0 0 .39-.89 13.56 13.56 0 0 0 3.46-5.11zm70.21 74c1.43-1.12 1-2.74 1-4.16 0-20.74-.11-41.48.06-62.22.09-9.86-8.07-22.55-22.89-23.89a9.59 9.59 0 0 0-8.47 0l-1.69.27c-4.39.55-7.82 2.87-10.88 5.88a24.1 24.1 0 0 0-7.13 8.12c-6.07 7.63-8.85 16.49-9.8 26.05-.08 1.32-.15 2.64-.23 4-1.7 5.6-.57 11.23.07 16.77 1.18 10.09 3.61 19.86 9.58 28.39 2.77 5.62 7.16 9.67 12.46 12.84a6.94 6.94 0 0 0 3.38 1.91c11.87 3.77 28.2-2.77 34.54-13.96zm399.88 3.94a1.84 1.84 0 0 0-1 1.78 1.14 1.14 0 0 0-.88 1.28v.05a.64.64 0 0 0-.58.93c-5.71 7.81-12.08 15.05-20.66 19.76-17.94 9.85-36 9.61-54-.07l-3.49-1.87c-2.52-2.12-5.06-4.23-7.57-6.37-5.74-4.89-9.42-11.4-13.6-17.52a14.32 14.32 0 0 0-.65-2.35c-6.66-14.29-7.65-29.22-5.55-44.65 1.41-10.37 5.84-19.54 10.26-28.77a83.74 83.74 0 0 1 20.74-20.14l1.06-.37a2.24 2.24 0 0 0 2.24-1.39l11.91-4.18 1.87-.22c8-1.32 15.88-.69 23.8.43h.05l15 5.94a3.15 3.15 0 0 0 2.73 1.59l.38.27a6 6 0 0 0 .94 1.11c14.23 10 22.27 23.78 25.55 40.67.53 2.74-.14 5.7 1.46 8.23 0 .66.08 1.31.11 2a118.75 118.75 0 0 1-6.18 35.89 26.21 26.21 0 0 0-3.94 7.97zm-68.06-89.08a1.19 1.19 0 0 0-1.09 1 1.15 1.15 0 0 0-1 1.11c-5.4 5-8.61 11.41-10.57 18.32-6.54 23-3.65 45.46 5.45 67.21 2 4.79 4.48 9.66 9 12.92a1.34 1.34 0 0 0 1.14 1.13 10.2 10.2 0 0 0 4.71 3.84c9.14 7.52 24.75 6.79 32.34-4.26l2.21-2.84c6.77-8.32 9.06-18.31 9.94-28.58a125.07 125.07 0 0 0-1.95-36.82c-1.8-8.55-3.82-17.13-9.81-24-.81-2.88-3.06-4.57-5.21-6.34a1.33 1.33 0 0 0-.54-.51c-4.29-4.81-10.11-6.64-16.1-7.7-6.34-1.15-12.5-.34-17.34 4.66a1.07 1.07 0 0 0-1.18.86zM602.47 196.16a1 1 0 0 0-.86.21c-6.32 2.25-12.67 3.49-19.44 1.86-4.95-1.18-8.9-4.23-13.41-6.21a11.7 11.7 0 0 0-4.12-3.88 17.27 17.27 0 0 0-4-5 4.49 4.49 0 0 0-1.95-3.27c-4.39-8.88-5.23-18.34-5.16-28.11.19-26.61 0-53.23 0-79.85a13.42 13.42 0 0 1 .56-5.33h21.56c1.17 1.39.7 3.12.7 4.72q0 43.19-.06 86.35c0 3.74.45 7.28 2.34 10.56a8 8 0 0 0 3.68 5.33.6.6 0 0 0 .4.66 2 2 0 0 0 1.86 1.73.81.81 0 0 0 .71.46 4.29 4.29 0 0 0 3.11 2c8.43 5.73 19 4.63 25.59-2 5.14-3.31 8.82-8 12.07-13 1.34-2.07 1.4-4.34 1.4-6.7V71.78c0-1.83.13-3.66.2-5.48h21.68v130.08h-20.76a2.3 2.3 0 0 0-.88-.3v-22l-1.13-.33-4.15 6.41-7.84 8.07a12.83 12.83 0 0 0-5 4l-1.17.63c-2.39.42-4.06 2.03-5.93 3.3zM347.89 64.39a.61.61 0 0 0 .68-.16c9.49-1.49 18.85-1.21 28 2 2.83 2 5.69 3.89 8.49 5.89 4.64 3.29 7.43 8.33 11.44 12.22.12.79.24 1.59 1.09 2-.05 3.82-3.93 5.1-5.32 8l-.79.75-1.17.94h-.47a10.74 10.74 0 0 0-3.14-5 .71.71 0 0 0-.41-.74c-1-3.58-4.51-5.42-6-8.68a1.09 1.09 0 0 0-1.22-1.11c-2.72-1-4.29-4-7.33-4.47-7.56-5-15.6-5-23.62-1.65-8.71 3.62-12.36 11.65-9.67 20.08 1.48 6.33 5.81 10.43 10.93 13.9a14.18 14.18 0 0 0 7.09 4.18c7.29 4.52 15.22 7.84 22.76 11.89l11 7.45a.39.39 0 0 0 .34.35 2.86 2.86 0 0 0 2 2 2.56 2.56 0 0 0 2 2 .38.38 0 0 0 .45.3l5.45 8.92a42.28 42.28 0 0 1-.24 30.21c-4.91 12.78-15 19.67-27.92 22.27s-25.79 1.67-37.4-5.77c-1.11-.71-2.18-1.48-3.27-2.22a12.82 12.82 0 0 0-4.71-4h-.07a3.24 3.24 0 0 0-2-1.9v-.07c-1.56-3-3.92-5.45-6.12-8 1.17-4.82 5.3-7.18 8.59-10.22.13-.12.84.38 1.28.59 4.17 7 8.43 13.91 15.73 18.2q10.07 8.14 22.27 3.87c8.96-2.64 14.16-9.31 14.15-18.18 0-10.17-5.84-16.5-14.12-21.19a2.38 2.38 0 0 0-1.74-1.06c-4.05-3.26-8.76-5.34-13.39-7.57l-2.94-1.3-16-11a55.59 55.59 0 0 1-9.79-14c-.36-1.61-.74-3.22-1.09-4.83-3-14 0-26.29 10.63-36.34 4.49-4.21 10.06-6.32 15.57-8.55zM781.8 76.23l-1.29 1.1c-7.92-.38-15.82-.24-23.78 0-.11 1.44-.24 2.26-.24 3.08v87.38c0 6.48 2.41 11.75 8.44 14s11-.48 14.74-5.49c1.23-.95 2.4-.36 3.56.15l3.21 3a1.11 1.11 0 0 0 .06.72 18.14 18.14 0 0 0-3.86 6.08v.06a2.31 2.31 0 0 0-1.76 2l-1.37 1.72a1.26 1.26 0 0 0-1.11 1h-.08a37.84 37.84 0 0 1-18.85 7.91c-3.73.42-7.2-.93-10.82-.7-9.62-4.66-13.27-12.92-14.13-23-1.05-12.15-.46-24.31-.53-36.47-.12-18 0-36 0-54 0-2.31.22-4.66-1-7.19-5.95-.8-12.1 0-18.19-.47q.14-3.32.25-6.63a7.58 7.58 0 0 0 3.6-.34c5.51 0 10.39-1.6 14.21-5.78 2.08-.53 2.29-2.91 3.89-3.92 1-.35 1.48-1.23 2-2.05 5.69-8.54 8.19-18.16 9.67-28.14l.3-2.82c1.29-1.49 1.05-3.3 1.08-5.06a1.27 1.27 0 0 0 1.07-1v.07c1.73.49 3.69-.35 5.71 1.23v43.37h20.99c1.59.43 4-.63 4.3 2.22a25.48 25.48 0 0 0-.07 7.97zm-82.43 119.83c-7.28.35-14.55.29-22.09 0v-7.24c0-36.92.13-73.84-.15-110.75-.05-5.62 1.23-9.15 6.79-10.63a14 14 0 0 0 2.63-1.36 4.58 4.58 0 0 0 3.19-1.71l6-1.52a.63.63 0 0 0 .77-.47l.09-.14a.55.55 0 0 1 .53.33 4 4 0 0 1 2.4 4.21c-.21 4.65 0 9.31 0 14z"/><path class="b" d="M196.36 84.68c9.12-15.67 22.85-24.8 40.56-27.58 28.06-4.4 48 8.64 63.51 30.58 11.43 16.13 14 34.14 11.64 53.26-1.06 8.75-2.16 17.48-4.45 26a17.81 17.81 0 0 1-1 2.26 2 2 0 0 0-2.07 1.7c-1.06 5-5.71 7.64-8.22 11.78-1.58 2.61-5 5-7.15 7.86-3.17 4.21-7 6.83-12.61 5.72v-.03c.81-1.16.44-2.25-.2-3.32a1 1 0 0 1 1.1-.71c4.15 1 6.54-1.77 8.46-4.5 1.16-1.65 2.07-4.43-1.42-5.43a191 191 0 0 1-12-17.85c0-3-.79-5.35-4.18-5.9v.11c.15-4.27 0-4.53-3.06-5l-.89-.95c-.11-1.8 1.18-4.37-2.37-4.25-2-.46-2.86-2.45-3.44-3.8-1.23-2.9-3.67-3.66-6-4.78.19-1.62.22-3.16-1.92-3.5-.3-.94.25-2.22-1.1-2.73-2.6-1.93-3.44-5.74-7-6.62-.05-.8-.18-1.54-1.09-1.82l-1-2a3.49 3.49 0 0 0-2.09-2c-3.09-3.62-6.14-7.26-9.29-10.83-.6-.68-1.09-2.28-2.58-1 .87-2-.62-2.53-2-3.1l.11.11c-5.5-8-12.63-14.27-20-20.62l-4.14 4.49a5.34 5.34 0 0 0-4 4.39 1.78 1.78 0 0 1-2.59 1.4 1.82 1.82 0 0 1-.82-3.12 4.91 4.91 0 0 0 1.23-4.92c2.85.25 2.16-1.7 2.07-3.3zm74.47 65.29c-.35 1.51.3 2.21 1.81 2.22-.51 3.05.75 4.75 3.85 5.06 2.11 2.88 4.7 5.41 6.21 8.72 0 1-.14 2 1.4 1.85l.16.18c-1.15 2.39-.53 3.28 2.7 3.92-1.34 4.24 2.2 5.74 4.54 7.81.52.45 1-.52 1.06-1.2l2.73-2.41c4-1.76 5.76-4.84 5.2-9.2 4.24-12.62 5.64-25.68 5.73-38.91 0-2 .82-4.36-1.44-5.86.22-.75 1.19-1.57-.23-2.15a3.54 3.54 0 0 0 .02-4.77v-2.1a15.43 15.43 0 0 0-.26-2.46 59.76 59.76 0 0 0-15.75-27.2c-.79-4.37-3.68-6.79-8.2-6.87v-.27.27c.47-2.83-1.47-2.27-3.07-2.18-5.58-2.88-11-6.16-16.79-8.54-2-3.2-5.18-.95-7.72-1.67H235.8c-1.53 0-3 0-3 2.15-2 .6-5.09-1.93-6.09 1.94-5.67 2.61-11.24 5.38-15.77 9.87 6.57 7.2 12.84 14.29 19.36 21.15 4.78 5 8.9 10.71 14.5 14.94-.12 1.17.47 1.68 1.58 1.74.29 1.88 1.75 2.88 3 4l1.47 1.35a4.57 4.57 0 0 0 2.67 3.78c.6.87-1.07 2.59 1.08 2.87h.5l.49.06 1 1.21c.63 2.48 2.69 4 4 6 0 1.74.05 3.41 2.24 3.86l-.09-.13c1.27 1.77 1.21 4.48 3.75 5.37.13 1.36.08 2.85 2 3 .11 1.5.06 3.13 2.38 2.69l-.12.22z"/><path class="c" d="M21.23 260.16l.64-1.87c2.59-5.19 5.21-10.36 6.81-16a7.17 7.17 0 0 0 1.89-4.06c1.1-1 1-2.85 2.44-3.8a10.71 10.71 0 0 1 5.55.4v39.33l-5.99.07v-30l-1-.24c-3.64 8.75-7.88 17.23-11 26.2a2 2 0 0 0-.87 2c-.75 1-1.33 2.36-3 1.82-4.18-9.94-8.31-19.89-13.18-29.49l-1.11.3v28.94c-1.15.48-2.27.24-2.27-.11-.09-12.93-.07-25.86-.07-38.85 3.79-1.16 6.16-.47 7.6 3.35 1.33 3.53 2.47 7.22 4.79 10.32a1.14 1.14 0 0 0 .24.79 1 1 0 0 0 .58 1.21v.12a109.69 109.69 0 0 0 5.84 13.47 6.52 6.52 0 0 0 2.11-3.9z"/><path class="a" d="M700.75 16.23c-3.47 7.4-6.9 9.68-14.11 9.18-5.13-.36-8.71-2.94-10.33-7.87s-1.43-9.81 2.41-13.87a13.15 13.15 0 0 1 5.84-3.66h7l1.8.32c2.83 1.92 4.9 4.58 7.05 7.16a.8.8 0 0 0 .19.75z"/><path class="c" d="M289.95 234.43c4.16-.07 8.35-.45 12.48-.12 4.87.4 9.52 1.53 11.43 7.11s-.37 9.32-4.34 12.68c-3.85.55-2.9 2.21-.94 4.1a3.46 3.46 0 0 0 1.99 3.03 1 1 0 0 0 .89 1.15l-.07-.07a1.76 1.76 0 0 0 1.16 1.95 18.1 18.1 0 0 0 3.95 6.17c.18.75.33 1.51 1.15 1.86l.57.82a2.05 2.05 0 0 1-1.65 1.36c-3.84.32-6.41-1.21-8.09-4.81-.92-2-1.9-4.15-3.88-5.49-1-2.21-1.95-4.49-3.92-6.09-.66-3.07-2.68-2.11-5.1-1.63v17.51c-2.12.14-3.71.63-5.69-.41zm16.62 14.8c2.18-3.37 1.59-6.75-.67-9.62-2.61-3.33-6.3-2.7-9.88-2v15.42c3.82.25 7.33.83 9.77-2.61zm-128.22-7a.72.72 0 0 0 .33-.68l1-1.22a1.11 1.11 0 0 0 .94-1q3.62-2.44 7.22-4.9a.94.94 0 0 0 .73-.29l10-.1 1.62.39c5.84 2.72 10.19 7 11.93 13.21s.72 12.49-1.71 18.47l-5.24 5.87a25.58 25.58 0 0 1-8.64 3.38 20.42 20.42 0 0 1-16.08-5.9l-.14-.17c0-.54-.21-.89-.8-.91l-.09-.1c-5.14-8.49-5.61-17.19-1.07-26.05zm10-4.17a3.44 3.44 0 0 0-2.07 2.08c-5.72 7.8-4.67 16.33-2.32 24.79 1.44 5.14 5.69 8.24 10.12 8.19 5.26-.06 8.45-3.47 9.95-7.82 2.9-8.42 3.23-16.94-1.72-25-.19-.91-.89-1.19-1.69-1.36l-.84-.76c-3.76-3.05-7.55-2.85-11.39-.16zm134.27 26.07a1.58 1.58 0 0 0-.21-.9 1 1 0 0 0-.56-1.24v.06c-1.11-6.41-1.09-12.73 1.65-18.81l1.12-1.85a38.45 38.45 0 0 1 9.29-7 .61.61 0 0 0 .66-.16c4.69-.17 9.39-.46 13.93 1.17a2.1 2.1 0 0 0 1.73 1.09l6.34 6.74c4.11 10.9 3 20.75-5.85 29l-.1.07c-.71.05-1.45 0-1.74.92l-.22.16c-6 2.68-12 2.32-18-.31-2.43-1.57-4.23-3.8-6.15-5.9a1 1 0 0 0-.77-1.16 2.22 2.22 0 0 0-1.12-1.88zm26.06 3.17a6.67 6.67 0 0 0 2-5.08c1.9-6.95 1.76-13.76-1.5-20.31a9.67 9.67 0 0 0-9.61-5.74 9.48 9.48 0 0 0-8.95 6 28.49 28.49 0 0 0-.15 24.13c2.69 6.15 7.92 8 14.22 5.18a4.15 4.15 0 0 0 3.16-3 1.06 1.06 0 0 0 .83-1.18zm-128.94-30.98l.83-2.09c2.3-.23 3.59 1.11 4.9 2.78 3 3.77 5.56 7.85 9.05 11.2a3.29 3.29 0 0 0 1.83 2.14 11 11 0 0 0 3.77 5.08v.16c1.12 1.57 2.17 3.2 3.39 4.68.55.67.93 2.5 2.42.89a5 5 0 0 0-.09-5.1c0-6.22 0-12.44-.09-18.66 0-1.91.28-3.28 2.61-3 .15.6.3 1.2.44 1.8a222 222 0 0 0 0 24.06v3.92l-.29 11c-1.85.13-2.41-1.68-3.67-2.44a53.48 53.48 0 0 0-6.41-8.48c-1.62-2.91-3.28-5.78-5.93-7.92l-4.73-6.27c-.8-2.38-2.57-3.93-5-6.39-.18 10.23-.37 19.39.11 28.56l-.39 2h-1.89a2.58 2.58 0 0 1-1-2.22c.71-11.86.44-23.79.14-35.7zm-83.39 9.91l.23-1a2.12 2.12 0 0 0 1-2 2.66 2.66 0 0 0 1-1.95l1-1.09c7.6-8.33 18.48-8.76 25.19-2.84a20.23 20.23 0 0 1 4.08 5c1.13 1.92.11 2.69-1.62 3.06-1.5-.75-2-2.26-2.76-3.5-4.7-8.11-15.54-5.33-18.95.63-4.07 7.12-4.55 14.33-1.16 21.8 1.94 4.55 5.19 7.34 10.26 7.7 6.43.67 9.21-4 12.4-8.54 2.17.53 3.16 1.6 1.63 3.71-1.25 1.72-2.74 3.27-4.12 4.89-7.28 4.57-14.56 4-21.85 0a3.41 3.41 0 0 0-2-2 3.51 3.51 0 0 0-1.88-2.08c-2.05-3.72-2.94-7.85-4.09-11.88v-2.91zm289.71 25.92c-.24.93-.32 2-1.49 2.26a1.71 1.71 0 0 1-1.15-1.47c-.06-12-.07-24.07-.13-36.1 0-2.33 1.41-2.65 3.23-2.55a3.14 3.14 0 0 0 2 2c.93 3.47 3.94 5.38 6 8a3.05 3.05 0 0 0 1.88 2.29q5.24 6.91 10.5 13.83c.28.36.71.73 1.66.26.75-5.34.21-10.94.37-16.51.07-2.5.13-5 0-7.49-.07-1.83.81-2.36 2.4-2.3v40.79c-2.76-.52-2.76-3.4-4.76-3.93-6-8.87-12.39-17.51-19.27-25.76-1-1.9-1.53-1.49-1.52.36.04 8.75-.46 17.54.28 26.32zm63.65-7.56c1.54-1.68 2.63-.74 3.64.62q-1.45 2.45-2.92 4.89a1.15 1.15 0 0 0-1.05 1.05l.05-.05a1.36 1.36 0 0 0-1.13 1.06 1.08 1.08 0 0 0-.77.38c-.55-.08-.9.11-.94.71l-.06.06-1.41.72-1.52.47c-6 1.9-11.64.51-17-2.29a18.52 18.52 0 0 0-4-4.13 32.92 32.92 0 0 1-4.14-11.85c.45-3.26.91-6.53 1.36-9.79a1 1 0 0 0 .63-1.21c3.12-6.61 8.16-10.62 15.5-11.71 5.87-.87 13.53 3 16.33 8.23 1.14 2.14.92 3.48-1.74 3.79l-.68-.78a.57.57 0 0 0-.35-.52c-3.5-7.33-8.07-9.17-15-6-7.35 4.2-10.2 12.19-7.86 22 .74 5 2.85 9 8 10.72l1 .37a6.3 6.3 0 0 0 7.09.09c3.54-1.02 5.38-3.79 6.97-6.83zm-413.14-.36c-.1-.32-.19-.64-.29-1 .13-.64-.2-.86-.78-.86l-.07-.07c-2.1-3.24-5.35-4.84-8.76-6.22a19.88 19.88 0 0 0-1.78-1.66c-8.35-6-8.46-14.06-.28-20.18 3.34-.75 6.58-1.35 10-.1s5.18 3.84 6.68 6.78c.92 1.83-.48 2.65-1.79 3.42-1.62-.56-1.66-2.44-2.82-3.39a.81.81 0 0 0-.33-.7 2.35 2.35 0 0 0-1.89-1.95 3.26 3.26 0 0 0-2-1.28c-3.26-1.22-6.73-.38-8.2 2.25-1.69 3-.74 5.63 1.71 7.89a21.08 21.08 0 0 0 6.59 4.16l1.18.87a6.91 6.91 0 0 0 3.62 2.29c5.24 4.23 6.31 9.56 4.15 15.73a.9.9 0 0 0-.76 1l-2.22 2a18.17 18.17 0 0 1-14 1.3 1.43 1.43 0 0 0-.96-.28 6 6 0 0 0-2.84-2.12c-.59-2.32-2.92-4.08-2.22-6.82h.08c.83 0 1.65 0 2.14-.82a3 3 0 0 0 .6 0c1 2.84 2.11 5.59 5.18 6.87 1.84 1.47 3.93 1.19 6 .83 4.81-1.67 5.64-3.3 4.06-7.94zm27.15 10.05h-4.81c-1.52-1.83-.74-3.73-.75-5.45-.09-9-.14-17.94 0-26.91.06-3.43-1.13-4.79-4.62-4.67-2.56.09-5.27.65-7.68-.52-.5-1.72.25-2.44 1.66-2.44h28.51c.95 2.27.16 3-1.5 3.15-2.66 0-5.33-.06-8-.13-2.23-.05-2.41 1.23-2 2.95l-.05 32zm168.92-.41c-2.52.48-4.13.69-6.3-.22v-35.42c-4.3-2.12-9.12.63-12.64-2.9a187.8 187.8 0 0 1 30-.79c.94.05.94 1.19.67 2.29-3.55 1.22-7.41.08-11.7.8z"/><path class="d" d="M194.32 87.99a4.91 4.91 0 0 1-1.23 4.92 1.82 1.82 0 0 0 .82 3.12 1.78 1.78 0 0 0 2.59-1.4 5.34 5.34 0 0 1 4-4.39 70.14 70.14 0 0 0-3.67 7.56c-.88 2.48-3.16 4.63-2.13 7.65a.58.58 0 0 1 0 .57c-2.07 1.15-2.46 2.95-1.91 5.09a1.37 1.37 0 0 0-.32.53 5.05 5.05 0 0 0-1.67 3.95c-.39 5.45-.89 10.9-.92 16.35a105.59 105.59 0 0 0 4.86 32.19 1.93 1.93 0 0 1-2-1.13c-2.6-5.65-3.51-11.86-3.89-17.8-.75-11.6-.2-23.29-.19-34.93l.41-.5-.49.42c-1.08.16-2 .64-1.9 1.85.8 8.07-1.57 15.86-2 23.8-.43 8.15 3.24 16 2 24.29l-.26.24c-2-3.72-2.39-7.94-2.65-11.94-1-15.41-.65-30.78 3.78-45.77a11.21 11.21 0 0 1 .87-1.73c.48 2.25-.42 4.74.78 7 1.81-.71 1.28-2.15 1.81-3.09 2-3.64 2-3.67-2.42-4.59a26 26 0 0 1 5.73-12.26z"/><path class="c" d="M386.57 271.23l2 .12a3.72 3.72 0 0 1 .74 2.73l-22.8.15c-.24-13.32-.48-26.65.1-40 1.58.29 3.33-.52 5.41 1.26v35.74a96.27 96.27 0 0 0 14.55 0z"/><path class="b" d="M248.57 208.15h-6c-.14-.64-.23-1.29-.92-1.65a19.34 19.34 0 0 0-13.32-1.92h-.09c.17-3.55-3.27-3.53-5-4.05-2.76-.81-2.72-2.29-2.62-4.31 2.86-.89 5.08 1 7.27 2.08 3.29 1.67 7 1.25 10.2 2.56 6.43 2.64 13.17 1.92 19.32.71 3.61-.71 7.75-1.25 11.49-3 2.16-1 4.68-3.18 7.68-2.38l.07.08c.34 2.42-.5 4.21-2.93 4.92-3.81 1.12-7.21 3.11-11.5 3.29s-8.29 2.19-12.69 2.09c-.71-.01-.81.95-.96 1.58z"/><path class="c" d="M408.44 236.23l.13-1.1a5.36 5.36 0 0 1 5.77.4v38.46a11.62 11.62 0 0 1-5.9-.28zm-355.97-.92l.42 11.87a50.15 50.15 0 0 0 0 11.09v5.91l-.37 10a18 18 0 0 1-5.76-.28q-.1-6.82-.22-13.64a44.35 44.35 0 0 0 0-10v-10c.71-1.66-.29-3.58.81-5.17z"/><path class="d" d="M248.57 208.15c.14-.63.24-1.59.91-1.58 4.4.1 8.51-1.91 12.69-2.09s7.69-2.17 11.5-3.29c2.43-.71 3.27-2.5 2.93-4.92 5.57 1.11 9.44-1.51 12.61-5.72 2.17-2.88 5.57-5.25 7.15-7.86 2.51-4.14 7.16-6.79 8.22-11.78a2 2 0 0 1 2.07-1.7c.36 1.8-.65 3.26-1.39 4.67-10.52 20.25-31.39 34.76-56.69 34.27zm-28-11.92c-.1 2-.14 3.5 2.62 4.31 1.76.52 5.2.5 5 4.05-21.47-7.62-35.87-21.93-41.81-44.23l.26-.24a2.24 2.24 0 0 1 1.81 1.44c1 2.85 2.26 5.63 3.06 8.59 1 3.81 4.16 6.55 6.23 9.74 2.32 3.58 5 8.39 10.76 8.36.1 1.11-.4 2.92.52 3.2 4 1.24 6.37 6.4 11.5 4.76zm7.75 8.33a19.34 19.34 0 0 1 13.32 1.92c.69.36.78 1 .92 1.65a35.23 35.23 0 0 1-14.24-3.57z"/><path class="b" d="M188.57 100.23c4.41.92 4.46.95 2.42 4.59-.53.94 0 2.38-1.81 3.09-1.2-2.23-.3-4.72-.78-7a.55.55 0 0 1 .17-.68z"/><path class="d" d="M196.36 84.68c.09 1.6.78 3.57-2.08 3.31a4.83 4.83 0 0 1 2.08-3.31z"/><path class="c" d="M47.37 235.08a5.19 5.19 0 0 1 .13-.88c1.63.47 3.7-1 5 1.11zM380.35 81.57l-1.22-1.11a1.09 1.09 0 0 1 1.22 1.11z"/><path class="e" d="M229.66 132.32c-.05-3.36-3.7-4-4.89-6.53l1.05-.79c1.36.09 1.79 2.76 4 1.11a19.36 19.36 0 0 0-7.35-12c.7-.16 1.6.44 2.1-.54-.32-2.23-2.06-4-2.09-6.31l.26-.19-.15-.28 2-.51-.11-.11c.73 1-1.73 4 2 3.1a16.83 16.83 0 0 0 .61 5.28c.68 2 2.62 2.93 3.16 4.76 2.2 7.44 2.15 7.45 7.68 2.07a1.94 1.94 0 0 1 .42-.25 3.49 3.49 0 0 1 2.09 2c-1 .6-2 1.21-2 2.32 1.34 1.42 2.07 0 3-.33.91.28 1 1 1.09 1.82l-8.74 5.75a5.45 5.45 0 0 0 .62 3.31c3.19 6.33 7.65 6.94 12.29 1.59a47.9 47.9 0 0 0 2.85-4c1.35.51.8 1.79 1.1 2.73-.64 2-3.34 3-2.89 5.65 1.85-.52 2.56-3 4.81-2.15 2.37 1.12 4.81 1.88 6 4.78.58 1.35 1.43 3.34 3.44 3.8a2.52 2.52 0 0 1 .16.77c-4.82 0-9.49-.53-13.4-3.7a2.43 2.43 0 0 0-3-.46c-1.62.68-1.07-1-1.28-1.8l.75-.44c-.22-.08-.48-.27-.65-.22-.35.12-.33.44 0 .75a43.33 43.33 0 0 0-26.92 7.17c-6.41 4.21-13.77 6.07-21.24 7.44-.5.1-1.32-.2-1.57-1.48 11.6-.9 19.89-8 28.63-15-2.26-2.14-4.06-4-4.12-7.74 2.29 2.39 2.62 6.54 6.39 5.41 2.21-.66 4.1-2.11 3.82-5l-.17.15c1.18.15 1.18-.79 1.21-1.47s-.51-1-1.21-.66z"/><path class="d" d="M220.57 192.45c5.61 2.34 10.94 5.4 17 6.65 11.91 2.48 23.26.4 34.28-4.26 1.51-.64 3-1.31 4.52-2 .64 1.07 1 2.16.2 3.32-3-.8-5.52 1.36-7.68 2.38-3.74 1.77-7.88 2.31-11.49 3-6.15 1.21-12.89 1.93-19.32-.71-3.19-1.31-6.91-.89-10.2-2.56-2.19-1.11-4.41-3-7.27-2.08-.04-1.23-.04-2.49-.04-3.74z"/><path class="e" d="M304.74 122.13c-13.4 6.65-27.65 10.74-42.12 14.21l-1-1c8.21-2.85 16.67-4.85 25-7.27a70.69 70.69 0 0 0 17.87-8.08c1.44.57.47 1.39.25 2.14zm-.17-6.9c-7.61-.4-15.07 1-22.6 1.78a58.29 58.29 0 0 1 22.55-3.88c-.02.69.05 1.39.05 2.1zM249.31 120c2.35-1.61 4.5-3.68 7.86-3.85.91 4.57-1.41 8.09-2.64 11.85-2.15-.28-.48-2-1.08-2.87.44-1.82 1.7-3.47 1.14-5.71l-3.81 1.93zm-4.61-5.77c1.41-4.21 2.27-5 7.17-6.09-1.39 3.2-3.65 5.41-5.59 7.83-1.11-.04-1.71-.55-1.58-1.74z"/><path class="d" d="M277.44 192.16c2-1.44 3.82-3 5.88-4.29 2.54-1.55 2.63-3.38 1.16-5.64 3.49 1 2.58 3.78 1.42 5.43-1.92 2.73-4.33 5.57-8.46 4.5zm9.48-20.26c2.49 1.68 3.34 4.74 5.6 6.61-.08.68-.54 1.65-1.06 1.2-2.34-2.07-5.89-3.57-4.54-7.81zm1.55-88.44c-2.77-2.24-5.78-4.22-8.2-6.87 4.52.08 7.41 2.5 8.2 6.87zm-20.1 75.13c-.8.68 0 2-1.13 2.62-1.22-.59-.57-2.1-1.39-2.87s.06-2.35-1.22-3a1.69 1.69 0 0 1 .68-1.74c3.05.46 3.26.72 3.06 4.99zm26.88 17.51l5.2-9.2c.56 4.33-1.17 7.44-5.2 9.2zM244.41 64.94l-11.74 1.45c0-2.18 1.47-2.15 3-2.15h8.78a3 3 0 0 0-.04.7zm28.16 87.22c2.18 1 3.86 2.39 3.85 5.06-3.06-.31-4.32-1.99-3.85-5.06z"/><path class="d" d="M269.57 162.64c.27-1.59-.48-2.88-1.23-4.16 3.39.55 4.21 2.92 4.18 5.9a1.68 1.68 0 0 0-2.85-.22zm-6.86-23.67c2.18-1.18 2.76.16 3 1.95-.29 1.24.66 2.18.79 3.32l-.09.1c-2.49-.89-2.43-3.6-3.7-5.37zm21.52 29a10.65 10.65 0 0 1 2.7 3.92c-3.23-.66-3.85-1.53-2.7-3.92zm-23.86-102.1l-7.67-.9a2.85 2.85 0 0 0 0-.77c2.49.72 5.67-1.53 7.67 1.67zm-27.67.48c-1.8 1.37-4 1.53-6.09 1.94.96-3.87 4.05-1.34 6.09-1.94z"/><path class="b" d="M252.65 64.23a2.85 2.85 0 0 1 0 .77 27.43 27.43 0 0 1-8.29 0 3 3 0 0 1 0-.74z"/><path class="d" d="M261.63 135.33l1 1a4 4 0 0 0 .18 2.76c-2.19-.45-2.27-2.12-2.24-3.86zm.58 13.84a2.52 2.52 0 0 0-.16-.77c3.55-.12 2.26 2.45 2.37 4.25-1.45-.71-1.65-2.21-2.21-3.48zm6.29-1.87c-2-.11-1.91-1.6-2-3l.09-.1a3.13 3.13 0 0 1 2.09 2.93zm11.73-70.71a5.2 5.2 0 0 1-3.07-2.18c1.6-.09 3.54-.65 3.07 2.18zm-9.32 71.72v1.68c-2.32.44-2.27-1.19-2.38-2.69l.14-.13z"/><path class="d" d="M270.83 149.97a3.68 3.68 0 0 1 1.81 2.26c-1.51 0-2.16-.75-1.81-2.26zm11.84 15.97a2.45 2.45 0 0 1 1.4 1.85c-1.5.19-1.4-.88-1.4-1.85zm-27.1-37.89a.28.28 0 0 1 .46.1l.68.67.08.27-.22.17z"/><path class="c" d="M246.02 261.23a8 8 0 0 1-.09-5.1 5 5 0 0 1 .09 5.1z"/><path class="b" d="M208.57 188.23c-5.71 0-8.44-4.78-10.76-8.36-2.07-3.19-5.2-5.93-6.23-9.74-.8-3-2-5.74-3.06-8.59a2.24 2.24 0 0 0-1.81-1.44c1.21-8.26-2.46-16.14-2-24.29.42-7.94 2.79-15.73 2-23.8-.12-1.21.82-1.69 1.9-1.85l.08.08c0 11.64-.56 23.33.19 34.93.38 5.94 1.29 12.15 3.89 17.8a1.93 1.93 0 0 0 2 1.13c.12 2.22-.23 4.29 1.18 6.57 3.07 4.95 5.87 10 10.23 14 1 .94 2.54 1.71 2.53 3.48z"/><path class="e" d="M194.67 105.45a41.62 41.62 0 0 1 28 8.82c-2.33.35-3.94-1.31-5.79-2.21-7-3.41-14.32-5.83-22.22-6a.58.58 0 0 0 .01-.61z"/><path class="b" d="M188.57 110.23l.49-.42-.41.5zm32 82.22v3.77c-5.13 1.64-7.51-3.52-11.5-4.76-.92-.28-.42-2.09-.52-3.2l.06-.06c1.12.07 2.11.05 3 1.11a8.54 8.54 0 0 0 8.15 2.82.77.77 0 0 1 .81.32z"/><path class="c" d="M498.81 270.46c1.71-1 3.52-2.35 5.26-.31.88 1 .67 2.5.16 3.8a2.14 2.14 0 0 1-2.43 1.25c-1.46-.06-2.57-.67-2.81-2.24-.13-.81-.12-1.64-.18-2.47z"/><path class="d" d="M219.79 192.13a8.54 8.54 0 0 1-8.15-2.82c-.93-1.06-1.92-1-3-1.11 0-1.77-1.52-2.54-2.53-3.48-4.36-4-7.16-9.08-10.23-14-1.41-2.28-1.06-4.35-1.18-6.57 5.45 11.9 14.25 20.85 25.09 27.98z"/><path class="e" d="M242.04 149.23c-.45 4.13-.2 8.32-.65 12.4-.32 2.91 1.93 4.07 2.67 6.17.27.76 1.75.73 2.55.21s-.47-1.44.25-2.5c1.26 1.48 2.78-.2 3.85.11 1.46.41 2 2.33 1.68 4.07-1.28 1-2.42.51-3.63-.24-.62-.38-1.06-1.1-2.11-.8-4.56 1.33-5.63.74-5.94-3.93a95.53 95.53 0 0 1 0-15.41zm-17.27-23.44c-1.64-1.5-3.29-3-5-4.57-1.33 2.05-.36 4-.52 5.88h-1.41c-1.41-3.56-.19-6.84.88-10.42 3.39 2.17 5.05 5.4 7.09 8.3zm39.86 29.55c1.28.65.47 2.14 1.22 3v12c-3.82-3-2.13-6.54-1.88-9.9v.11c.57-.21.79-.67.4-1.09s-.82 0-1.13.36a.92.92 0 0 0-.64.37q-.27-.33-.57-.63z"/><path class="e" d="M245.88 148.08c1.35 5-.13 10.27 0 15.54zm14.43 6.15c.07 1.55.15 3.1.23 4.65 0 1.14.58 1.28 1.45.67q.3.3.57.63a.8.8 0 0 0-.09.84c-.66.81-1 2-2.86 2.35a45 45 0 0 1 .33-9z"/><path class="f" d="M217.85 127.12h1.41l1.13 6.54c-2.55-1.72-2.72-4.08-2.54-6.54zm24.19 22.11l-1.32.08c-.35-1.55.47-2.63 1.33-3.93a3.28 3.28 0 0 1-.01 3.85zm18.27 5l-.37.1c-.33-1.52.37-2.66 1.36-4.22.27 1.92.79 3.36-.99 4.12z"/><path class="e" d="M269.57 162.64l.1 1.52-1.36 1.74c-1.41-2.01-.92-2.97 1.26-3.26zm-39.91-28.49c-.77 0-1.88.42-2-.65-.2-1.54 1.09-1.21 2-1.18l-.17-.15v2.13z"/><path class="f" d="M195.57 113.23c-1.41.21-2.31-.64-3.17-1.56a1.37 1.37 0 0 1 .32-.53c1.22.36 2.73.33 2.79 2.17zm0 .05c.64-.06 1.3-.31 1.9.25-.89 1.39-1.35.46-1.84-.33zm66.9 47.78a.8.8 0 0 1 .1-.83.92.92 0 0 1 .64-.37l.73.73v-.11zm11.41-40.83c-.27-.11-.72-.18-.75-.33-.11-.56.37-.65.76-.61.23 0 .44.29.66.45z"/><path class="e" d="M275.66 118.72c.48-.45 1-.8 1.56-.18a.28.28 0 0 1 0 .29c-.56.59-1.07.4-1.56-.11zm2.98-1.01c.52-.39 1-.89 1.65-.15a.33.33 0 0 1 0 .32c-.62.62-1.15.35-1.65-.17zm-22.66 10.44c.4-.37.79-1.24 1.39-.59s-.42.85-.71 1.26zm2.91-1.65h.36c.32.2.25.46-.19.64-.07 0-.27-.19-.34-.33s.11-.2.17-.31zm12.02 21.81l-2.27-1.14a3.13 3.13 0 0 0-2.07-2.94c-.13-1.14-1.08-2.08-.79-3.32l4.19-2.55c1.5 2.32 1.7 6.07 6 4.67 1-.31 2.13 1 1.63 1.81-.75 1.2-1.86 3.26-3.15 2.88a3.53 3.53 0 0 0-3.54.59z"/><path class="f" d="M222.5 107.3a1 1 0 0 1-.8-1.38c.05-.18.43-.27.66-.39l.25 1.3.15.28z"/><path class="e" d="M240.09 132.14c.7 0 1.27.18 1.4.93a1.34 1.34 0 0 1-1.2 1.72c-.4 0-1.07-.76-1.21-1.28a1.17 1.17 0 0 1 1.01-1.37z"/><path class="f" d="M233.07 120.75c.55.29 1.24.41 1.36 1.24-1 .65-1.44 0-1.9-.72.19-.17.37-.34.54-.52z"/><path class="f" d="M232.57 121.23c-.47 0-1.07-.37-.88-.71.46-.81 1-.21 1.42.19-.21.22-.39.39-.54.52zm30.63 38.62c.31-.37.69-.83 1.13-.36s.17.88-.4 1.09z"/></svg>